# xmcd
#
# Track frame offsets:
#	150
#	22677
#	38555
#	59517
#	80737
#	100480
#	118405
#	136367
#	159280
#	178532
#	199587
#	219602
#	238665
#
# Disc length: 3425 seconds
#
# Revision: 0
# Processed by: cddbd v1.5.1PL0 Copyright (c) Steve Scherf et al.
# Submitted via: dBpowerAMP V4.0
#
DISCID=b00d5f0d
DTITLE=LIMÃO COM MEL - SAX - - SAX
DYEAR=2004
DGENRE=FORRÓ
TTITLE0=fica comigo
TTITLE1=the boxer
TTITLE2=toma conta de mim
TTITLE3=de janeiro a janeiro
TTITLE4=ponto final
TTITLE5=frente a frente
TTITLE6=tentei te esquecer
TTITLE7=vivendo de solidão
TTITLE8=lost in love
TTITLE9=sem amor não dá
TTITLE10=incertezas
TTITLE11=do i have to say the words
TTITLE12=every beat of my heart
EXTD=
EXTT0=
EXTT1=
EXTT2=
EXTT3=
EXTT4=
EXTT5=
EXTT6=
EXTT7=
EXTT8=
EXTT9=
EXTT10=
EXTT11=
EXTT12=
PLAYORDER=
